PathFileType	3	(X/Y/Z)	D:\Vicon Database\Healthy Subjects\S0040\Jan. 30, 2020\Force Plate Walk 8.trc
DataRate	CameraRate	NumFrames	NumMarkers	Units	OrigDataRate	OrigDataStartFrame	OrigNumFrames
100.0	100.0	6	53	mm	100.0	507	319	
Frame#	Time	right_foot_cluster2			right_foot_cluster3			sternum_cluster1			sternum_cluster2			sternum_cluster3			left_asis			right_asis			left_psis			right_psis			sacrum_cluster1			sacrum_cluster2			sacrum_cluster3			left_lat_femoral_epicondyle			left_anterior_thigh15			left_anterior_thigh25			left_anterior_thigh50			left_lateral_thigh25			left_lateral_thigh50			left_thigh_cluster1			left_thigh_cluster2			left_thigh_cluster3			left_fibular_head			left_tibial_tuberosity			left_anterior_shank30			left_lateral_malleolus			left_shank_cluster1			left_shank_cluster2			left_shank_cluster3			left_heel			left_metatarsal2			left_foot_cluster1			left_foot_cluster2			left_foot_cluster3			right_lat_femoral_epicondyle			right_anterior_thigh15			right_anterior_thigh25			right_anterior_thigh50			right_lateral_thigh25			right_lateral_thigh50			right_thigh_cluster1			right_thigh_cluster2			right_thigh_cluster3			right_fibular_head			right_tibial_tuberosity			right_lateral_distal_shank			right_anterior_shank30			right_lateral_malleolus			right_shank_cluster1			right_shank_cluster2			right_shank_cluster3			right_heel			right_metatarsal2			right_foot_cluster1			
		X1	Y1	Z1	X2	Y2	Z2	X3	Y3	Z3	X4	Y4	Z4	X5	Y5	Z5	X6	Y6	Z6	X7	Y7	Z7	X8	Y8	Z8	X9	Y9	Z9	X10	Y10	Z10	X11	Y11	Z11	X12	Y12	Z12	X13	Y13	Z13	X14	Y14	Z14	X15	Y15	Z15	X16	Y16	Z16	X17	Y17	Z17	X18	Y18	Z18	X19	Y19	Z19	X20	Y20	Z20	X21	Y21	Z21	X22	Y22	Z22	X23	Y23	Z23	X24	Y24	Z24	X25	Y25	Z25	X26	Y26	Z26	X27	Y27	Z27	X28	Y28	Z28	X29	Y29	Z29	X30	Y30	Z30	X31	Y31	Z31	X32	Y32	Z32	X33	Y33	Z33	X34	Y34	Z34	X35	Y35	Z35	X36	Y36	Z36	X37	Y37	Z37	X38	Y38	Z38	X39	Y39	Z39	X40	Y40	Z40	X41	Y41	Z41	X42	Y42	Z42	X43	Y43	Z43	X44	Y44	Z44	X45	Y45	Z45	X46	Y46	Z46	X47	Y47	Z47	X48	Y48	Z48	X49	Y49	Z49	X50	Y50	Z50	X51	Y51	Z51	X52	Y52	Z52	X53	Y53	Z53	
507	5.06	677.72876	95.527145	-235.4621	675.66254	98.9328	-272.49597	289.37497	1412.5223	-140.06767	278.45782	1384.5878	-131.76956	275.86322	1388.5803	-169.40987	303.11734	1032.5729	-32.408409	292.0321	1033.6241	-283.30026	468.16391	1044.5833	-82.695992	461.74957	1050.8851	-200.90384	475.09741	1104.6932	-148.21861	479.69495	1079.6592	-161.41812	485.18765	1073.0027	-122.7533	181.87144	537.53259	-10.807159	125.89664	648.74176	-59.907455	148.09595	730.35248	-44.808395	208.16415	849.34381	-29.032942	247.29433	674.40729	12.816877	302.54178	812.27289	40.515015	286.39847	767.48523	46.474937	278.03903	738.80225	42.377846	247.87804	761.09741	47.575806	152.34166	464.93314	-5.3198981	95.985809	470.64612	-59.451618	68.314774	219.00221	-72.582718	93.420235	96.028419	-42.444386	85.612228	416.41275	-90.03231	75.623451	390.17844	-82.165543	91.652992	387.48166	-117.1276	160.57454	58.030243	-83.211662	-52.152905	91.662102	-77.236015	11.725287	127.46157	-70.683136	-14.320885	114.45308	-61.290302	-17.645123	122.47626	-98.628265	491.00095	517.39703	-301.81329	374.92383	565.36383	-249.10628	327.62924	640.22253	-247.97592	286.63251	769.0094	-257.47345	436.06918	667.67542	-319.93527	394.5574	807.935	-338.73831	417.72437	762.70276	-345.2692	416.21463	734.66644	-346.3616	450.8866	742.77167	-334.94061	535.61938	463.84525	-307.08789	491.93167	422.37167	-263.12119	704.95111	251.70493	-295.95862	659.49774	233.54306	-251.48502	768.47467	166.00784	-284.10016	542.24896	373.20154	-208.60201	562.88275	354.19147	-202.19754				850.8952	178.84795	-248.50906	673.04517	52.81723	-246.04387	687.32666	121.37271	-243.49362
508	5.07	669.65106	94.476929	-235.60347	667.35034	97.847443	-272.75952	273.32767	1413.5631	-137.5869	262.98825	1385.2028	-129.91968	260.59732	1389.2051	-167.58176	285.81174	1033.4388	-30.410841	275.23071	1033.8054	-281.24014	451.21048	1044.5887	-80.638123	444.74954	1050.2957	-199.15855	458.53296	1104.4492	-146.41907	463.03293	1079.3114	-159.45377	468.46796	1072.842	-120.81303	166.19119	537.38336	-9.6678257	109.14317	648.37463	-56.681194	130.84312	730.59851	-41.390972	190.23943	850.57837	-25.802219	230.76036	674.69855	13.71269	285.49313	812.55273	42.089035	269.87726	767.9812	47.832027	261.50037	739.15118	43.724949	231.43127	761.43976	49.350029	136.38306	464.95816	-4.0266571	80.511238	469.953	-58.680222	60.067841	216.69511	-73.635353	90.135765	95.212601	-42.947422	71.970467	414.6976	-90.117279	62.611774	388.18875	-82.370857	79.086075	385.9613	-117.19847	158.69803	58.754776	-83.206024	-55.550152	85.956238	-77.712364	7.5626388	124.10477	-71.386826	-17.988972	110.33541	-61.818283	-21.67827	118.0445	-99.245323	466.01239	514.70459	-302.36743	349.7023	563.18439	-249.58743	304.31	639.57031	-247.82817	266.72458	769.22101	-255.83983	414.02042	665.3371	-318.82574	375.47269	806.85614	-336.12939	397.59485	761.47571	-342.86084	394.28427	733.22339	-342.04654	430.64236	741.05548	-332.64563	512.18744	462.51215	-308.03479	470.05243	419.16702	-264.97617	688.79736	256.80356	-295.58749	643.36322	236.46013	-252.21622	754.54919	173.28537	-283.80453	519.91327	371.00372	-209.93202	541.19769	352.81473	-203.36253				835.06403	192.93257	-246.67157	668.91052	52.309464	-246.13225	676.91968	121.12562	-243.70273
509	5.08	659.21655	94.719429	-235.88383	658.25085	97.39341	-272.99918	259.80368	1413.3584	-136.82422	247.44366	1386.0314	-128.02609	245.39862	1389.9652	-165.73599	268.62085	1034.8101	-28.262276	258.70895	1034.1444	-279.12338	434.47342	1044.6825	-78.697853	428.58597	1050.1476	-197.01566	442.24869	1104.339	-144.63501	446.70483	1079.25	-157.61629	452.03043	1072.771	-118.9223	150.61803	537.61804	-8.504118	92.821991	648.2287	-54.321857	113.76881	730.5965	-38.257984	172.41422	851.96747	-22.603539	214.03217	675.56012	15.356309	268.72525	813.29785	43.839535	253.43388	768.58411	49.580853	244.97266	739.89771	45.41737	214.91827	762.13953	51.143204	120.50006	464.93912	-2.8816037	66.028328	468.99673	-58.841965	53.009399	214.54262	-74.77211	87.945442	94.80629	-43.581226	59.238476	412.96155	-90.191742	50.523052	386.19406	-82.602089	67.46846	384.56308	-117.17456	157.82982	59.687141	-83.297462	-57.587471	82.065498	-78.293991	5.0826311	122.15707	-72.457176	-20.121325	107.95641	-62.605827	-24.173527	115.15812	-100.12688	440.00922	511.71182	-303.27115	323.22879	561.36127	-250.78564	280.31268	639.08118	-247.96738	246.32779	770.14679	-254.25574	391.31906	663.42719	-317.63525	355.73868	805.44293	-333.70804	377.19827	760.25012	-340.66422	374.22864	732.56464	-341.2486	410.07861	739.12433	-330.33023	487.1727	460.81674	-308.6958	445.57068	415.5683	-267.3157	670.7915	262.03488	-295.2493	625.50122	239.3932	-253.06746	738.76135	180.86427	-283.41003	496.12177	368.33383	-211.84831	517.81958	351.0285	-204.87862				816.5517	208.44362	-244.867	664.00812	52.369457	-246.17297	665.09546	121.61277	-243.88864
510	5.09	650.2691	95.310036	-236.10965	647.63257	98.473923	-273.33356	244.6053	1414.1566	-134.98384	231.9781	1386.9431	-126.16357	230.22441	1390.8302	-163.93623	251.53235	1036.5044	-25.983551	242.59589	1034.5828	-277.0072	418.12823	1045.2163	-76.879295	412.3204	1049.9254	-195.40781	426.19427	1104.2762	-143.19647	430.71988	1079.2307	-155.90024	435.82578	1072.8099	-117.26133	134.75401	538.39081	-6.8979769	77.021156	648.64795	-53.593754	97.050247	730.97345	-36.166401	155.12883	853.17535	-19.746851	197.80382	676.37299	17.560461	251.77946	814.849	45.910297	236.99982	769.56519	51.515293	228.58467	740.98816	47.365608	198.33759	763.16315	53.06757	104.93789	465.05286	-2.0110335	52.361977	467.95218	-59.067612	46.991844	212.8665	-75.679398	86.482384	94.712944	-44.249485	47.463543	411.47144	-90.195747	39.571526	384.40308	-82.804115	57.05125	383.30267	-117.14249	157.31296	60.250595	-83.429977	-58.809952	79.73362	-78.968826	3.6286168	120.76737	-73.703545	-21.39904	106.4321	-63.5145	-25.629332	113.08785	-101.09513	412.76599	508.70294	-304.01886	296.33313	559.6875	-252.61119	255.86784	638.78027	-248.53801	226.31709	770.94366	-252.90576	367.99185	661.20447	-316.99316	336.36597	803.74634	-331.46875	356.83972	758.66827	-338.45056	352.16962	730.66766	-338.43561	389.38388	737.17053	-328.33566	460.81952	459.05478	-309.6843	419.73062	412.16727	-269.8237	651.71869	267.42059	-294.96503	606.00891	242.48209	-253.91423	720.73035	189.30174	-283.15411	470.80176	365.43906	-213.7666	493.10309	349.00705	-206.52097				794.58551	223.40367	-243.34711	657.56415	53.589966	-246.10023	651.90094	123.42431	-244.29225
511	5.1	639.0257	97.900261	-236.73157	636.50562	100.59666	-274.10278	229.33351	1415.0608	-133.27219	216.4801	1387.9031	-124.44583	215.1438	1391.7256	-162.30241	235.70323	1038.0497	-24.394373	226.8902	1035.1021	-275.04813	401.85501	1045.8313	-75.198997	396.80566	1049.8469	-193.53453	410.44748	1104.5576	-141.76965	414.92749	1079.4037	-154.24495	419.96982	1073.387	-115.47794	118.77229	539.41241	-5.0614243	61.833717	649.04553	-53.542225	81.067451	731.68219	-34.899815	138.35443	854.25555	-17.454245	181.32474	677.91364	20.09403	235.0715	816.32898	48.065369	220.24135	771.01392	53.475388	212.44041	742.44519	49.601463	181.67378	764.20099	54.792152	90.540474	465.0715	-1.2965275	40.015255	466.85046	-59.419731	41.804176	211.65559	-76.221237	84.999054	94.743317	-44.672089	37.067688	410.21289	-90.191666	29.752672	382.9711	-82.93634	47.755699	382.43475	-117.04108	156.57951	60.221203	-83.514023	-60.175282	77.198723	-79.503983	1.8876704	119.46894	-74.463669	-22.824831	104.79222	-64.232742	-27.157907	110.93536	-101.81948	384.82211	505.5433	-304.56091	269.11322	558.34326	-255.01007	230.95296	638.88031	-249.51334	206.33208	772.06281	-251.57246	344.36798	658.86115	-316.35214	317.65506	802.26373	-330.21677	336.16718	756.95575	-336.58359	330.62973	729.23242	-336.87503	369.23602	735.45099	-326.84296	433.24133	457.13977	-310.20883	392.86725	409.0452	-271.91245	631.29187	273.66751	-295.09348	585.19006	245.67274	-254.62553	700.83173	197.66916	-282.9913	444.38248	362.50146	-215.27814	467.29553	346.89224	-207.9157				770.14569	239.57307	-241.56248	650.0155	56.456558	-246.60457	637.09833	126.25343	-245.21872
512	5.11	624.46277	101.20657	-237.76889	624.02527	103.5929	-275.18079	214.08528	1415.9821	-131.68558	201.0574	1388.924	-122.81889	200.12288	1392.656	-160.76762	219.49434	1039.9601	-22.550304	211.58278	1035.6614	-273.28058	385.9184	1046.6241	-73.50087	381.5795	1049.7952	-191.79575	394.85449	1104.818	-140.46898	399.38647	1079.5365	-152.63786	404.2402	1073.902	-113.78711	103.89846	540.08832	-3.3949649	47.292381	649.02661	-53.537804	66.008301	732.01971	-33.970436	122.28781	855.11572	-15.729136	166.14735	678.73956	22.138531	218.44221	818.18158	50.264458	203.54628	772.52722	56.052418	196.08153	743.71899	51.572334	165.28052	765.33478	56.340767	78.291595	464.33859	-0.74206209	28.902262	465.52658	-59.492119	37.298168	210.67886	-76.18544	84.031509	94.640694	-45.167015	27.833334	408.99307	-90.093964	21.073139	381.56564	-82.917	39.552494	381.49957	-116.78954	156.50951	60.530003	-83.494507	-60.749229	75.480446	-79.599457	1.1123314	118.51402	-75.098877	-23.525225	103.76949	-64.534668	-28.0418	109.58454	-102.17971	356.21475	502.18414	-304.80847	241.78613	557.75043	-257.35501	205.9929	639.53564	-250.54463	186.54346	773.57391	-250.36317	320.31699	656.68457	-315.95654	298.55228	801.52972	-327.01865	315.60767	755.30054	-334.84052	309.28104	727.63867	-335.61929	348.48132	733.02148	-324.89331	404.80951	455.21585	-310.39609	365.3382	406.62296	-272.95004	607.38525	278.46579	-294.23645	562.46985	249.07703	-255.40233	679.49164	205.82704	-282.59222	417.18802	359.8338	-216.44086	440.61325	344.89941	-208.92717	429.43384	330.61188	-242.17796	743.19366	254.72864	-239.80331	641.07196	60.374874	-247.08081	621.25787	129.68661	-246.28247
